<svg xmlns="http://www.w3.org/2000/svg" xmlns:xlink="http://www.w3.org/1999/xlink" width="1024" zoomAndPan="magnify" viewBox="0 0 768 767.999994" height="1024" preserveAspectRatio="xMidYMid meet" version="1.0"><defs><g/><clipPath id="7c4175e57f"><path d="M 76.800781 76.800781 L 691.5 76.800781 L 691.5 692 L 76.800781 692 Z M 76.800781 76.800781 " clip-rule="nonzero"/></clipPath><clipPath id="357c74d45a"><path d="M 384.148438 76.800781 C 214.40625 76.800781 76.800781 214.472656 76.800781 384.300781 C 76.800781 554.128906 214.40625 691.800781 384.148438 691.800781 C 553.894531 691.800781 691.5 554.128906 691.5 384.300781 C 691.5 214.472656 553.894531 76.800781 384.148438 76.800781 Z M 384.148438 76.800781 " clip-rule="nonzero"/></clipPath></defs><g clip-path="url(#7c4175e57f)"><g clip-path="url(#357c74d45a)"><path fill="#e070a7" d="M 76.800781 76.800781 L 691.5 76.800781 L 691.5 691.5 L 76.800781 691.5 Z M 76.800781 76.800781 " fill-opacity="1" fill-rule="nonzero"/></g></g><g fill="#ffffff" fill-opacity="1"><g transform="translate(227.066603, 535.487524)"><g><path d="M 82.4375 1.78125 C 73.664062 1.78125 67.382812 -0.171875 63.59375 -4.078125 C 59.8125 -7.992188 57.921875 -15.398438 57.921875 -26.296875 C 57.921875 -33.640625 58.628906 -42.519531 60.046875 -52.9375 C 61.472656 -63.363281 63.960938 -79.117188 67.515625 -100.203125 C 67.984375 -103.046875 69.875 -114.59375 73.1875 -134.84375 C 76.507812 -155.09375 79.472656 -176.351562 82.078125 -198.625 C 84.441406 -217.570312 85.625 -231.78125 85.625 -241.25 C 85.625 -251.914062 81.71875 -257.25 73.90625 -257.25 C 67.976562 -257.25 60.570312 -254.109375 51.6875 -247.828125 C 42.8125 -241.554688 33.28125 -231.550781 23.09375 -217.8125 C 19.78125 -213.3125 16.109375 -211.0625 12.078125 -211.0625 C 8.765625 -211.0625 5.863281 -212.660156 3.375 -215.859375 C 0.882812 -219.054688 -0.359375 -222.664062 -0.359375 -226.6875 C -0.359375 -230.71875 0.347656 -234.566406 1.765625 -238.234375 C 3.191406 -241.910156 5.800781 -246.351562 9.59375 -251.5625 C 21.195312 -267.4375 34.101562 -279.695312 48.3125 -288.34375 C 62.53125 -296.988281 77.457031 -301.3125 93.09375 -301.3125 C 106.125 -301.3125 115.894531 -297.28125 122.40625 -289.21875 C 128.914062 -281.164062 132.171875 -269.441406 132.171875 -254.046875 C 132.171875 -240.304688 130.273438 -220.410156 126.484375 -194.359375 C 138.328125 -229.410156 153.367188 -256 171.609375 -274.125 C 189.847656 -292.25 211.285156 -301.3125 235.921875 -301.3125 C 255.347656 -301.3125 269.972656 -295.800781 279.796875 -284.78125 C 289.628906 -273.769531 294.546875 -259.023438 294.546875 -240.546875 C 294.546875 -230.117188 293.007812 -217.445312 289.9375 -202.53125 L 268.265625 -100.90625 C 265.890625 -89.0625 264.703125 -78.878906 264.703125 -70.359375 C 264.703125 -60.398438 267.007812 -52.929688 271.625 -47.953125 C 276.25 -42.984375 282.707031 -40.5 291 -40.5 C 298.8125 -40.5 306.445312 -43.101562 313.90625 -48.3125 C 321.375 -53.53125 330.203125 -62.179688 340.390625 -74.265625 C 343.234375 -77.578125 346.429688 -79.234375 349.984375 -79.234375 C 353.066406 -79.234375 355.492188 -77.8125 357.265625 -74.96875 C 359.046875 -72.125 359.9375 -68.21875 359.9375 -63.25 C 359.9375 -54.007812 357.6875 -46.664062 353.1875 -41.21875 C 340.863281 -26.289062 328.660156 -15.390625 316.578125 -8.515625 C 304.503906 -1.648438 291.832031 1.78125 278.5625 1.78125 C 258.425781 1.78125 242.671875 -4.195312 231.296875 -16.15625 C 219.929688 -28.125 214.25 -44.175781 214.25 -64.3125 C 214.25 -72.125 214.898438 -80.648438 216.203125 -89.890625 C 217.503906 -99.128906 219.695312 -110.851562 222.78125 -125.0625 L 237 -190.09375 C 237.46875 -192.226562 238.289062 -196.019531 239.46875 -201.46875 C 240.65625 -206.914062 241.601562 -212.066406 242.3125 -216.921875 C 243.03125 -221.773438 243.390625 -226.570312 243.390625 -231.3125 C 243.390625 -238.882812 241.253906 -244.921875 236.984375 -249.421875 C 232.722656 -253.929688 226.6875 -256.1875 218.875 -256.1875 C 204.65625 -256.1875 190.441406 -248.601562 176.234375 -233.4375 C 162.023438 -218.28125 148.878906 -193.820312 136.796875 -160.0625 C 124.710938 -126.3125 115.238281 -83.144531 108.375 -30.5625 C 106.71875 -18.476562 104.289062 -10.066406 101.09375 -5.328125 C 97.894531 -0.585938 91.675781 1.78125 82.4375 1.78125 Z M 82.4375 1.78125 "/></g></g></g></svg>